<?xml version="1.0" encoding="UTF-8"?>
<svg width="16px" height="16px" viewBox="0 0 16 16" version="1.1" xmlns="http://www.w3.org/2000/svg" xmlns:xlink="http://www.w3.org/1999/xlink">
    <!-- Generator: Sketch 51 (57462) - http://www.bohemiancoding.com/sketch -->
    <title>sale16</title>
    <desc>Created with Sketch.</desc>
    <defs></defs>
    <g id="Ver1.6" stroke="none" stroke-width="1" fill="none" fill-rule="evenodd">
        <g id="Artboard" transform="translate(-1321.000000, -953.000000)">
            <g id="Group-10-[16v]" transform="translate(327.000000, 901.000000)">
                <g id="Group-9-[1v]">
                    <g id="Row/Search">
                        <g id="Group-10" transform="translate(13.000000, 16.000000)">
                            <g id="Group-12" transform="translate(0.000000, 8.000000)">
                                <g id="Group-11" transform="translate(37.000000, 0.000000)">
                                    <g id="special" transform="translate(872.000000, 0.000000)">
                                        <g id="ico-write-down" transform="translate(72.000000, 28.000000)">
                                            <rect id="ico-zone" fill-opacity="0" fill="#D8D8D8" x="0" y="0" width="16" height="16"></rect>
                                            <path d="M8,16 C12.418278,16 16,12.418278 16,8 C16,3.581722 12.418278,0 8,0 C3.581722,0 0,3.581722 0,8 C0,12.418278 3.581722,16 8,16 Z M3.11681721,8.66625976 C2.96069216,8.82238161 2.96120943,9.07602239 3.11748139,9.23229116 L6.72093552,12.8356714 C6.8774274,12.99216 7.13058556,12.9927253 7.28697852,12.8363356 L11.7295124,8.39389279 C11.8856375,8.23777094 12.0066004,7.93224683 11.9997205,7.71243484 L11.8981241,4.46646421 C11.8912308,4.24622722 11.7066767,4.0620886 11.4868602,4.05520879 L8.24082301,3.95361445 C8.02058151,3.94672135 7.71574404,4.06742723 7.55935108,4.22381699 L3.11681721,8.66625976 L3.11681721,8.66625976 L3.11681721,8.66625976 Z M10.7048017,5.24852554 C11.0965949,5.64031067 11.0986555,6.27345929 10.7094043,6.66270256 C10.320153,7.05194583 9.68699143,7.04988525 9.29519826,6.65810012 C8.9034051,6.26631499 8.90134446,5.63316637 9.29059571,5.24392309 C9.67984696,4.85467982 10.3130086,4.8567404 10.7048017,5.24852554 L10.7048017,5.24852554 L10.7048017,5.24852554 L10.7048017,5.24852554 Z" fill="#EC9045"></path>
                                        </g>
                                    </g>
                                </g>
                            </g>
                        </g>
                    </g>
                </g>
            </g>
        </g>
    </g>
</svg>