<?xml version="1.0" encoding="UTF-8"?>
<svg width="18px" height="17px" viewBox="0 0 18 17" version="1.1" xmlns="http://www.w3.org/2000/svg" xmlns:xlink="http://www.w3.org/1999/xlink">
    <!-- Generator: Sketch 51 (57462) - http://www.bohemiancoding.com/sketch -->
    <title>shopcart16-blue</title>
    <desc>Created with Sketch.</desc>
    <defs></defs>
    <g id="Symbols" stroke="none" stroke-width="1" fill="none" fill-rule="evenodd">
        <g id="button-rec-addgoods/default" transform="translate(-16.000000, -10.000000)">
            <g id="ICON/icon24/shopcart24/Black-Yellow" transform="translate(16.000000, 9.000000)">
                <rect id="ico-zone" fill-opacity="0" fill="#D8D8D8" x="0" y="0" width="18" height="18"></rect>
                <g id="shopcart" stroke-width="1" transform="translate(0.000000, 1.500000)">
                    <path d="M7.49996769,12.75 C6.67286942,12.75 6,13.422797 6,14.2498062 C6,15.0770092 6.67286942,15.75 7.49996769,15.75 C8.32706597,15.75 9,15.0770092 9,14.2498062 C9,13.422797 8.32713058,12.75 7.49996769,12.75 Z" id="Shape" fill="#4A4A4A" fill-rule="nonzero"></path>
                    <path d="M13.4999677,12.75 C12.6728694,12.75 12,13.422797 12,14.2498062 C12,15.0770092 12.6728694,15.75 13.4999677,15.75 C14.327066,15.75 15,15.0770092 15,14.2498062 C15,13.422797 14.3271306,12.75 13.4999677,12.75 Z" id="Shape" fill="#4A4A4A" fill-rule="nonzero"></path>
                    <polygon id="Path-2" fill="#FFCC00" points="4.30242063 3.20537283 17.2816059 3.20537283 15.4654685 10.4795732 6.17012073 10.6756218"></polygon>
                    <path d="M8.27130144,8.41558065 C8.30566507,8.74226613 8.58608612,8.985375 8.91301435,8.985375 C8.93523445,8.985375 8.95762679,8.98427419 8.98019139,8.9819879 C9.33502392,8.94591532 9.59296651,8.63387903 9.55627751,8.28492339 L9.25845933,5.45093952 C9.22177033,5.10198387 8.90414354,4.84854435 8.54956938,4.88453226 C8.19473684,4.92060484 7.93679426,5.23264113 7.97348325,5.5815121 L8.27130144,8.41558065 Z" id="Shape" fill="#4A4A4A" fill-rule="nonzero"></path>
                    <path d="M12.3135502,8.9819879 C12.3361148,8.98427419 12.3585072,8.985375 12.3807273,8.985375 C12.7075694,8.985375 12.9880766,8.74218145 13.0224402,8.41558065 L13.3202584,5.58159677 C13.3569474,5.23264113 13.0990048,4.92060484 12.7441722,4.88461694 C12.3891675,4.8491371 12.0718852,5.10215323 12.0352823,5.45102419 L11.7374641,8.28500806 C11.7007751,8.63387903 11.9587177,8.94591532 12.3135502,8.9819879 Z" id="Shape" fill="#4A4A4A" fill-rule="nonzero"></path>
                    <path d="M17.6488743,2.92058803 C17.5741087,2.82549161 17.4579354,2.76940726 17.3344306,2.76940726 L4.26669687,2.76940726 L4.21748587,2.58332424 L3.67689501,0.539172081 C3.63201157,0.369581939 3.47469262,0.25 3.29339713,0.25 L0.645933014,0.25 C0.42633766,0.25 0.25,0.423374998 0.25,0.635080645 C0.25,0.846786293 0.42633766,1.02016129 0.645933014,1.02016129 L2.98643442,1.02016129 L3.03565049,1.20623525 L3.57335166,3.23965266 C3.57602613,3.25069392 3.57602613,3.25069392 3.58142116,3.26965585 L5.57519111,10.8077715 C5.62007456,10.9773616 5.7773935,11.0969435 5.958689,11.0969435 L15.3353971,11.0969435 C15.5166926,11.0969435 15.6740116,10.9773616 15.7188862,10.8078047 L17.7178897,3.25045867 C17.7480627,3.13617061 17.7227328,3.01453063 17.6488743,2.92058803 Z M15.0284344,10.3268669 L6.26565177,10.3268669 L4.47042683,3.53956855 L16.8236593,3.53956855 L15.0284344,10.3268669 Z" id="Shape" stroke="#4A4A4A" stroke-width="0.5" fill="#4A4A4A" fill-rule="nonzero"></path>
                </g>
            </g>
        </g>
    </g>
</svg>