<?xml version="1.0" encoding="UTF-8"?>
<svg width="19px" height="19px" viewBox="0 0 19 19" version="1.1" xmlns="http://www.w3.org/2000/svg" xmlns:xlink="http://www.w3.org/1999/xlink">
    <!-- Generator: Sketch 51 (57462) - http://www.bohemiancoding.com/sketch -->
    <title>shopcart16-blue</title>
    <desc>Created with Sketch.</desc>
    <defs></defs>
    <g id="Symbols" stroke="none" stroke-width="1" fill="none" fill-rule="evenodd">
        <g id="button-rec-addgoods/NotInStock" transform="translate(-34.000000, -8.000000)">
            <g id="Group" transform="translate(34.000000, 9.000000)">
                <g id="ICON/icon24/shopcart24/none/grey">
                    <rect id="ico-zone" fill-opacity="0" fill="#D8D8D8" x="0" y="0" width="18" height="18"></rect>
                    <g id="shopcart" stroke-width="1" transform="translate(0.000000, 1.500000)" fill="#C8C7CC">
                        <path d="M7.18746904,12.75 C6.39483319,12.75 5.75,13.422797 5.75,14.2498062 C5.75,15.0770092 6.39483319,15.75 7.18746904,15.75 C7.98010489,15.75 8.625,15.0770092 8.625,14.2498062 C8.625,13.422797 7.98016681,12.75 7.18746904,12.75 Z" id="Shape" fill-rule="nonzero"></path>
                        <path d="M12.937469,12.75 C12.1448332,12.75 11.5,13.422797 11.5,14.2498062 C11.5,15.0770092 12.1448332,15.75 12.937469,15.75 C13.7301049,15.75 14.375,15.0770092 14.375,14.2498062 C14.375,13.422797 13.7301668,12.75 12.937469,12.75 Z" id="Shape" fill-rule="nonzero"></path>
                        <path d="M16.8722289,2.93907915 C16.8090786,2.85526435 16.7130853,2.80690726 16.6121627,2.80690726 L4.04965196,2.80690726 L3.99468894,2.59003771 L3.47662398,0.545890592 C3.43771689,0.392490158 3.30534961,0.2875 3.15617225,0.2875 L0.619019139,0.2875 C0.437608937,0.2875 0.2875,0.441503769 0.2875,0.635080645 C0.2875,0.828657521 0.437608937,0.98266129 0.619019139,0.98266129 L2.90126434,0.98266129 L2.95623316,1.19952078 L3.47173253,3.23379164 C3.47409255,3.2439594 3.47409255,3.2439594 3.47926341,3.26294152 L5.38995856,10.801053 C5.42886565,10.9544534 5.56123292,11.0594435 5.71041029,11.0594435 L14.6964222,11.0594435 C14.8455996,11.0594435 14.9779669,10.9544534 15.0168646,10.8010899 L16.9325731,3.24375645 C16.9593954,3.13774252 16.9368716,3.02487473 16.8722289,2.93907915 Z M14.4415143,10.3643669 L5.96531827,10.3643669 L4.2258836,3.50206855 L16.1809489,3.50206855 L14.4415143,10.3643669 Z" id="Shape" stroke="#C8C7CC" stroke-width="0.575" fill-rule="nonzero"></path>
                    </g>
                    <path d="M-0.276376761,7.15987321 L19.0961232,7.15987321 C19.9245503,7.15987321 20.5961232,7.83144609 20.5961232,8.65987321 C20.5961232,9.48830034 19.9245503,10.1598732 19.0961232,10.1598732 L-0.276376761,10.1598732 C-1.10480389,10.1598732 -1.77637676,9.48830034 -1.77637676,8.65987321 C-1.77637676,7.83144609 -1.10480389,7.15987321 -0.276376761,7.15987321 Z" id="Rectangle" stroke="#FFFFFF" stroke-width="1.5" fill="#C8C7CC" transform="translate(9.409873, 8.659873) rotate(-45.000000) translate(-9.409873, -8.659873) "></path>
                </g>
            </g>
        </g>
    </g>
</svg>