<?xml version="1.0" encoding="UTF-8"?>
<svg width="16px" height="16px" viewBox="0 0 16 16" version="1.1" xmlns="http://www.w3.org/2000/svg" xmlns:xlink="http://www.w3.org/1999/xlink">
    <!-- Generator: Sketch 51 (57462) - http://www.bohemiancoding.com/sketch -->
    <title>zvls16</title>
    <desc>Created with Sketch.</desc>
    <defs></defs>
    <g id="Ver1.6" stroke="none" stroke-width="1" fill="none" fill-rule="evenodd">
        <g id="Artboard" transform="translate(-1297.000000, -953.000000)">
            <g id="Group-10-[16v]" transform="translate(327.000000, 901.000000)">
                <g id="Group-9-[1v]">
                    <g id="Row/Search">
                        <g id="Group-10" transform="translate(13.000000, 16.000000)">
                            <g id="Group-12" transform="translate(0.000000, 8.000000)">
                                <g id="Group-11" transform="translate(37.000000, 0.000000)">
                                    <g id="special" transform="translate(872.000000, 0.000000)">
                                        <g id="ico-znvls" transform="translate(48.000000, 28.000000)">
                                            <rect id="ico-zone" fill-opacity="0" fill="#D8D8D8" x="0" y="0" width="16" height="16"></rect>
                                            <path d="M8,16 C12.418278,16 16,12.418278 16,8 C16,3.581722 12.418278,0 8,0 C3.581722,0 0,3.581722 0,8 C0,12.418278 3.581722,16 8,16 Z M12.4067733,6.14768192 C12.1788433,5.57820932 11.7215203,5.09927666 11.088747,4.80269912 C10.5294819,4.54046118 9.92687982,4.50894526 9.37913458,4.66916636 C8.83157219,4.82938746 8.3391409,5.26605599 7.99994296,5.7708572 C7.66083645,5.26605599 7.16840516,4.82938746 6.62084277,4.66916636 C6.07328039,4.50894526 5.47049548,4.54046118 4.91123031,4.80269912 C4.27854844,5.09918558 3.8212255,5.57820932 3.59320403,6.14768192 C3.36527399,6.71715452 3.36426828,7.3783512 3.65153511,8.03590442 C4.26611423,9.44246167 7.98046879,12.7436175 7.99994296,12.8 C8.01941713,12.7436175 11.7338631,9.44246167 12.3483508,8.03590442 C12.6358005,7.37826011 12.6347034,6.71715452 12.4067733,6.14768192 L12.4067733,6.14768192 Z" fill="#7CB342"></path>
                                        </g>
                                    </g>
                                </g>
                            </g>
                        </g>
                    </g>
                </g>
            </g>
        </g>
    </g>
</svg>